# xmcd CD database file
#
# Track frame offsets:
#	150
#	9301
#	22929
#	30914
#	41481
#	50556
#	62886
#	70039
#	82198
#	90618
#	101431
#	112670
#	122233
#	128475
#	147072
#	161517
#	173954
#	183562
#	192884
#	204957
#
# Disc length: 2867 seconds
#
# Revision: 4
# Processed by: cddbd v1.5.2PL0 Copyright (c) Steve Scherf et al.
# Submitted via: CDex 1.70beta2
#
DISCID=fb0b3114
DTITLE=Various Artist - Country Legends [CD 1)
DYEAR=2006
DGENRE=Country
TTITLE0=Johnny Cash - Blue Train
TTITLE1=Don Williams - I'm Just A Country Boy
TTITLE2=Tammy Wynette - When The Grass Grows Over Me
TTITLE3=Patsy Cline - I Don't Wanna
TTITLE4=Jimmy Dean - It'll Be Easy
TTITLE5=Lynn Anderson - I Never Promised You A Rose Garden
TTITLE6=Barbara Mandrell - Kentucky Means Paradise
TTITLE7=Don Williams - Some Broken Hearts Never Mend
TTITLE8=Lee Greenwood - Ring On Her Finger
TTITLE9=Ferlin Husky - Baby For You
TTITLE10=Merle Haggard - Begging To You
TTITLE11=Faron Young - Alone With You
TTITLE12=George Jones - Chicken Reel
TTITLE13=Merle Haggard - Foot Lights
TTITLE14=David Fritzell - I Love You A Thousend Ways
TTITLE15=Patsy Cline - Finger Prints
TTITLE16=Ketty Wells - Whose Shoulder Will You Cry On
TTITLE17=Conway Twitty - Ever Since You Went Away
TTITLE18=Johnny Paycheck - I'll Follow You Up To Our
TTITLE19=Johnny Cash - Get Rhytm
EXTD=YEAR: 2006
EXTT0=
EXTT1=
EXTT2=
EXTT3=
EXTT4=
EXTT5=
EXTT6=
EXTT7=
EXTT8=
EXTT9=
EXTT10=
EXTT11=
EXTT12=
EXTT13=
EXTT14=
EXTT15=
EXTT16=
EXTT17=
EXTT18=
EXTT19=
PLAYORDER=
